<svg xmlns="http://www.w3.org/2000/svg" xmlns:xlink="http://www.w3.org/1999/xlink" width="500" zoomAndPan="magnify" viewBox="0 0 375 374.999991" height="500" preserveAspectRatio="xMidYMid meet" version="1.0"><defs><g/><clipPath id="e3641af915"><path d="M 34.742188 221.066406 L 187.5 221.066406 L 187.5 225.074219 L 34.742188 225.074219 Z M 34.742188 221.066406 " clip-rule="nonzero"/></clipPath></defs><rect x="-37.5" width="450" fill="#ffffff" y="-37.499999" height="449.999989" fill-opacity="1"/><rect x="-37.5" width="450" fill="#ebebeb" y="-37.499999" height="449.999989" fill-opacity="1"/><g fill="#2e2e2e" fill-opacity="1"><g transform="translate(7.589851, 210.355429)"><g><path d="M 60.375 -14.609375 C 57.632812 -9.921875 53.984375 -6.238281 49.421875 -3.5625 C 44.785156 -0.820312 39.757812 0.546875 34.34375 0.546875 C 28.863281 0.546875 23.84375 -0.820312 19.28125 -3.5625 C 14.644531 -6.238281 10.988281 -9.921875 8.3125 -14.609375 C 5.632812 -19.242188 4.296875 -24.300781 4.296875 -29.78125 C 4.296875 -35.195312 5.632812 -40.25 8.3125 -44.9375 C 11.050781 -49.570312 14.734375 -53.257812 19.359375 -56 C 23.929688 -58.675781 28.925781 -60.015625 34.34375 -60.015625 C 39.707031 -60.015625 44.734375 -58.675781 49.421875 -56 C 54.046875 -53.257812 57.695312 -49.570312 60.375 -44.9375 C 63.050781 -40.25 64.390625 -35.195312 64.390625 -29.78125 C 64.390625 -24.363281 63.050781 -19.304688 60.375 -14.609375 Z M 53.796875 -41.109375 C 51.785156 -44.578125 49.046875 -47.347656 45.578125 -49.421875 C 42.109375 -51.429688 38.363281 -52.4375 34.34375 -52.4375 C 30.257812 -52.4375 26.515625 -51.429688 23.109375 -49.421875 C 19.640625 -47.347656 16.898438 -44.578125 14.890625 -41.109375 C 12.878906 -37.628906 11.875 -33.851562 11.875 -29.78125 C 11.875 -25.632812 12.878906 -21.828125 14.890625 -18.359375 C 16.898438 -14.890625 19.640625 -12.148438 23.109375 -10.140625 C 26.578125 -8.066406 30.320312 -7.03125 34.34375 -7.03125 C 38.488281 -7.03125 42.265625 -8.066406 45.671875 -10.140625 C 49.140625 -12.148438 51.878906 -14.890625 53.890625 -18.359375 C 55.835938 -21.828125 56.8125 -25.632812 56.8125 -29.78125 C 56.8125 -33.851562 55.804688 -37.628906 53.796875 -41.109375 Z M 53.796875 -41.109375 "/></g></g></g><g fill="#2e2e2e" fill-opacity="1"><g transform="translate(68.336812, 210.355429)"><g><path d="M 7.765625 0 L 7.765625 -59.46875 L 29.5 -59.46875 C 32.125 -59.46875 34.648438 -59.039062 37.078125 -58.1875 C 39.453125 -57.332031 41.554688 -56.113281 43.390625 -54.53125 C 45.335938 -52.882812 46.859375 -50.96875 47.953125 -48.78125 C 48.992188 -46.582031 49.515625 -44.296875 49.515625 -41.921875 C 49.515625 -39.484375 48.992188 -37.203125 47.953125 -35.078125 C 46.859375 -32.878906 45.335938 -30.929688 43.390625 -29.234375 C 41.554688 -27.648438 39.453125 -26.429688 37.078125 -25.578125 C 34.648438 -24.660156 32.125 -24.203125 29.5 -24.203125 L 15.53125 -24.203125 L 15.53125 0 Z M 15.53125 -31.875 L 29.5 -31.875 C 31.757812 -31.875 33.832031 -32.332031 35.71875 -33.25 C 37.601562 -34.164062 39.125 -35.382812 40.28125 -36.90625 C 41.375 -38.425781 41.921875 -40.097656 41.921875 -41.921875 C 41.921875 -43.691406 41.375 -45.335938 40.28125 -46.859375 C 39.125 -48.378906 37.601562 -49.597656 35.71875 -50.515625 C 33.769531 -51.367188 31.695312 -51.796875 29.5 -51.796875 L 15.34375 -51.796875 Z M 15.53125 -31.875 "/></g></g></g><g fill="#2e2e2e" fill-opacity="1"><g transform="translate(115.107322, 210.355429)"><g><path d="M 7.765625 -59.46875 L 45.765625 -59.46875 L 45.765625 -51.796875 L 15.34375 -51.796875 L 15.34375 -33.609375 L 38.640625 -33.609375 L 38.640625 -25.9375 L 15.34375 -25.9375 L 15.34375 -7.578125 L 45.765625 -7.578125 L 45.765625 0 L 7.765625 0 Z M 7.765625 -59.46875 "/></g></g></g><g fill="#2e2e2e" fill-opacity="1"><g transform="translate(160.690288, 210.355429)"><g><path d="M 15.53125 0 L 7.859375 0 L 7.859375 -60.375 L 46.5 -18.640625 L 46.5 -59.46875 L 54.078125 -59.46875 L 54.078125 1.46875 L 15.53125 -40.46875 Z M 15.53125 0 "/></g></g></g><g fill="#2e2e2e" fill-opacity="1"><g transform="translate(214.586049, 210.355429)"><g><path d="M 12.328125 -59.46875 L 31.140625 -17.359375 L 49.96875 -59.46875 L 58.375 -59.46875 L 31.140625 1.46875 L 4.015625 -59.46875 Z M 12.328125 -59.46875 "/></g></g></g><g fill="#2e2e2e" fill-opacity="1"><g transform="translate(269.212591, 210.355429)"><g><path d="M 55.71875 0 L 51.25 -4.65625 C 46.070312 -1.1875 40.4375 0.546875 34.34375 0.546875 C 28.925781 0.546875 23.929688 -0.820312 19.359375 -3.5625 C 14.734375 -6.238281 11.050781 -9.921875 8.3125 -14.609375 C 5.632812 -19.304688 4.296875 -24.363281 4.296875 -29.78125 C 4.296875 -35.195312 5.632812 -40.25 8.3125 -44.9375 C 10.988281 -49.570312 14.644531 -53.257812 19.28125 -56 C 23.90625 -58.675781 28.925781 -60.015625 34.34375 -60.015625 C 39.707031 -60.015625 44.703125 -58.675781 49.328125 -56 C 53.953125 -53.257812 57.632812 -49.570312 60.375 -44.9375 C 63.050781 -40.25 64.390625 -35.195312 64.390625 -29.78125 C 64.390625 -26 63.753906 -22.40625 62.484375 -19 C 61.140625 -15.53125 59.28125 -12.425781 56.90625 -9.6875 L 66.125 0 Z M 45.859375 -10.328125 L 30.59375 -26.765625 L 36.171875 -31.875 L 51.703125 -15.34375 C 55.109375 -19.488281 56.8125 -24.300781 56.8125 -29.78125 C 56.8125 -33.800781 55.835938 -37.578125 53.890625 -41.109375 C 51.878906 -44.578125 49.140625 -47.347656 45.671875 -49.421875 C 42.203125 -51.429688 38.425781 -52.4375 34.34375 -52.4375 C 30.320312 -52.4375 26.578125 -51.429688 23.109375 -49.421875 C 19.640625 -47.347656 16.898438 -44.578125 14.890625 -41.109375 C 12.878906 -37.628906 11.875 -33.851562 11.875 -29.78125 C 11.875 -25.695312 12.878906 -21.921875 14.890625 -18.453125 C 16.898438 -14.984375 19.640625 -12.242188 23.109375 -10.234375 C 26.460938 -8.160156 30.207031 -7.125 34.34375 -7.125 C 38.601562 -7.125 42.441406 -8.191406 45.859375 -10.328125 Z M 45.859375 -10.328125 "/></g></g></g><g fill="#2e2e2e" fill-opacity="1"><g transform="translate(332.151927, 210.355429)"><g><path d="M 7.765625 -59.46875 L 45.765625 -59.46875 L 45.765625 -51.796875 L 15.34375 -51.796875 L 15.34375 -33.609375 L 38.640625 -33.609375 L 38.640625 -25.9375 L 15.34375 -25.9375 L 15.34375 -7.578125 L 45.765625 -7.578125 L 45.765625 0 L 7.765625 0 Z M 7.765625 -59.46875 "/></g></g></g><g clip-path="url(#e3641af915)"><path fill="#2e2e2e" d="M 34.742188 221.066406 L 187.5 221.066406 L 187.5 225.074219 L 34.742188 225.074219 Z M 34.742188 221.066406 " fill-opacity="1" fill-rule="nonzero"/></g><g fill="#2e2e2e" fill-opacity="1"><g transform="translate(193.251425, 226.635395)"><g><path d="M 3.34375 0.109375 C 2.757812 0.109375 2.238281 -0.015625 1.78125 -0.265625 C 1.332031 -0.515625 0.976562 -0.859375 0.71875 -1.296875 C 0.46875 -1.734375 0.34375 -2.238281 0.34375 -2.8125 C 0.34375 -3.382812 0.46875 -3.890625 0.71875 -4.328125 C 0.976562 -4.773438 1.332031 -5.125 1.78125 -5.375 C 2.238281 -5.625 2.757812 -5.75 3.34375 -5.75 C 3.9375 -5.75 4.457031 -5.625 4.90625 -5.375 C 5.351562 -5.125 5.707031 -4.773438 5.96875 -4.328125 C 6.226562 -3.890625 6.359375 -3.382812 6.359375 -2.8125 C 6.359375 -2.195312 6.207031 -1.65625 5.90625 -1.1875 C 5.601562 -0.71875 5.195312 -0.375 4.6875 -0.15625 L 4.75 0 C 4.8125 0.125 4.867188 0.21875 4.921875 0.28125 C 4.984375 0.351562 5.066406 0.398438 5.171875 0.421875 C 5.273438 0.453125 5.414062 0.46875 5.59375 0.46875 L 6.03125 0.46875 L 6.03125 1.46875 L 5.3125 1.46875 C 4.5 1.46875 3.945312 1.117188 3.65625 0.421875 L 3.53125 0.109375 Z M 1.65625 -2.8125 C 1.65625 -2.476562 1.722656 -2.179688 1.859375 -1.921875 C 2.003906 -1.660156 2.203125 -1.457031 2.453125 -1.3125 C 2.710938 -1.175781 3.007812 -1.109375 3.34375 -1.109375 C 3.6875 -1.109375 3.984375 -1.175781 4.234375 -1.3125 C 4.492188 -1.457031 4.691406 -1.660156 4.828125 -1.921875 C 4.972656 -2.179688 5.046875 -2.476562 5.046875 -2.8125 C 5.046875 -3.15625 4.972656 -3.453125 4.828125 -3.703125 C 4.691406 -3.960938 4.492188 -4.164062 4.234375 -4.3125 C 3.984375 -4.457031 3.6875 -4.53125 3.34375 -4.53125 C 3.007812 -4.53125 2.710938 -4.457031 2.453125 -4.3125 C 2.203125 -4.164062 2.003906 -3.960938 1.859375 -3.703125 C 1.722656 -3.453125 1.65625 -3.15625 1.65625 -2.8125 Z M 1.65625 -2.8125 "/></g></g></g><g fill="#2e2e2e" fill-opacity="1"><g transform="translate(201.90442, 226.635395)"><g><path d="M 2.984375 0.109375 C 2.492188 0.109375 2.070312 0.015625 1.71875 -0.171875 C 1.363281 -0.367188 1.09375 -0.648438 0.90625 -1.015625 C 0.71875 -1.378906 0.625 -1.8125 0.625 -2.3125 L 0.625 -5.625 L 1.90625 -5.625 L 1.90625 -2.40625 C 1.90625 -1.539062 2.265625 -1.109375 2.984375 -1.109375 C 3.703125 -1.109375 4.0625 -1.539062 4.0625 -2.40625 L 4.0625 -5.625 L 5.328125 -5.625 L 5.328125 -2.3125 C 5.328125 -1.8125 5.234375 -1.378906 5.046875 -1.015625 C 4.859375 -0.648438 4.585938 -0.367188 4.234375 -0.171875 C 3.878906 0.015625 3.460938 0.109375 2.984375 0.109375 Z M 2.984375 0.109375 "/></g></g></g><g fill="#2e2e2e" fill-opacity="1"><g transform="translate(209.809532, 226.635395)"><g><path d="M 0.078125 0 L 2.3125 -5.625 L 3.5625 -5.625 L 5.796875 0 L 4.4375 0 L 4.0625 -0.96875 L 1.8125 -0.96875 L 1.4375 0 Z M 2.15625 -1.984375 L 3.734375 -1.984375 L 2.9375 -4.046875 Z M 2.15625 -1.984375 "/></g></g></g><g fill="#2e2e2e" fill-opacity="1"><g transform="translate(217.634218, 226.635395)"><g><path d="M 0.671875 0 L 0.671875 -5.625 L 1.765625 -5.625 L 4.25 -2.203125 L 4.25 -5.625 L 5.515625 -5.625 L 5.515625 0 L 4.4375 0 L 1.953125 -3.453125 L 1.953125 0 Z M 0.671875 0 "/></g></g></g><g fill="#2e2e2e" fill-opacity="1"><g transform="translate(225.780584, 226.635395)"><g><path d="M 2.03125 0 L 2.03125 -4.4375 L 0.234375 -4.4375 L 0.234375 -5.625 L 5.09375 -5.625 L 5.09375 -4.4375 L 3.3125 -4.4375 L 3.3125 0 Z M 2.03125 0 "/></g></g></g><g fill="#2e2e2e" fill-opacity="1"><g transform="translate(233.066471, 226.635395)"><g><path d="M 2.984375 0.109375 C 2.492188 0.109375 2.070312 0.015625 1.71875 -0.171875 C 1.363281 -0.367188 1.09375 -0.648438 0.90625 -1.015625 C 0.71875 -1.378906 0.625 -1.8125 0.625 -2.3125 L 0.625 -5.625 L 1.90625 -5.625 L 1.90625 -2.40625 C 1.90625 -1.539062 2.265625 -1.109375 2.984375 -1.109375 C 3.703125 -1.109375 4.0625 -1.539062 4.0625 -2.40625 L 4.0625 -5.625 L 5.328125 -5.625 L 5.328125 -2.3125 C 5.328125 -1.8125 5.234375 -1.378906 5.046875 -1.015625 C 4.859375 -0.648438 4.585938 -0.367188 4.234375 -0.171875 C 3.878906 0.015625 3.460938 0.109375 2.984375 0.109375 Z M 2.984375 0.109375 "/></g></g></g><g fill="#2e2e2e" fill-opacity="1"><g transform="translate(240.971583, 226.635395)"><g><path d="M 0.671875 0 L 0.671875 -5.625 L 1.765625 -5.625 L 3.765625 -2.71875 L 5.765625 -5.625 L 6.84375 -5.625 L 6.84375 0 L 5.5625 0 L 5.5625 -3.390625 L 4.203125 -1.390625 L 3.3125 -1.390625 L 1.953125 -3.390625 L 1.953125 0 Z M 0.671875 0 "/></g></g></g><g fill="#2e2e2e" fill-opacity="1"><g transform="translate(250.436811, 226.635395)"><g/></g></g><g fill="#2e2e2e" fill-opacity="1"><g transform="translate(254.280796, 226.635395)"><g><path d="M 3.265625 0.109375 C 2.691406 0.109375 2.1875 -0.015625 1.75 -0.265625 C 1.3125 -0.515625 0.96875 -0.859375 0.71875 -1.296875 C 0.46875 -1.734375 0.34375 -2.238281 0.34375 -2.8125 C 0.34375 -3.382812 0.46875 -3.890625 0.71875 -4.328125 C 0.96875 -4.773438 1.304688 -5.125 1.734375 -5.375 C 2.171875 -5.625 2.675781 -5.75 3.25 -5.75 C 3.726562 -5.75 4.164062 -5.65625 4.5625 -5.46875 C 4.957031 -5.289062 5.289062 -5.035156 5.5625 -4.703125 C 5.832031 -4.367188 6.019531 -3.976562 6.125 -3.53125 L 4.8125 -3.53125 C 4.707031 -3.832031 4.515625 -4.070312 4.234375 -4.25 C 3.960938 -4.4375 3.648438 -4.53125 3.296875 -4.53125 C 2.972656 -4.53125 2.6875 -4.457031 2.4375 -4.3125 C 2.1875 -4.164062 1.992188 -3.960938 1.859375 -3.703125 C 1.722656 -3.453125 1.65625 -3.15625 1.65625 -2.8125 C 1.65625 -2.476562 1.722656 -2.179688 1.859375 -1.921875 C 1.992188 -1.660156 2.1875 -1.457031 2.4375 -1.3125 C 2.6875 -1.175781 2.96875 -1.109375 3.28125 -1.109375 C 3.65625 -1.109375 3.976562 -1.203125 4.25 -1.390625 C 4.53125 -1.578125 4.734375 -1.832031 4.859375 -2.15625 L 6.171875 -2.15625 C 6.078125 -1.695312 5.894531 -1.296875 5.625 -0.953125 C 5.351562 -0.617188 5.015625 -0.359375 4.609375 -0.171875 C 4.203125 0.015625 3.753906 0.109375 3.265625 0.109375 Z M 3.265625 0.109375 "/></g></g></g><g fill="#2e2e2e" fill-opacity="1"><g transform="translate(262.724707, 226.635395)"><g><path d="M 4.15625 0 L 4.15625 -2.265625 L 1.953125 -2.265625 L 1.953125 0 L 0.671875 0 L 0.671875 -5.625 L 1.953125 -5.625 L 1.953125 -3.46875 L 4.15625 -3.46875 L 4.15625 -5.625 L 5.4375 -5.625 L 5.4375 0 Z M 4.15625 0 "/></g></g></g><g fill="#2e2e2e" fill-opacity="1"><g transform="translate(270.790658, 226.635395)"><g><path d="M 0.671875 0 L 0.671875 -5.625 L 4.375 -5.625 L 4.375 -4.546875 L 1.953125 -4.546875 L 1.953125 -3.390625 L 4.15625 -3.390625 L 4.15625 -2.3125 L 1.953125 -2.3125 L 1.953125 -1.09375 L 4.46875 -1.09375 L 4.46875 0 Z M 0.671875 0 "/></g></g></g><g fill="#2e2e2e" fill-opacity="1"><g transform="translate(277.61816, 226.635395)"><g><path d="M 0.671875 0 L 0.671875 -5.625 L 1.765625 -5.625 L 3.765625 -2.71875 L 5.765625 -5.625 L 6.84375 -5.625 L 6.84375 0 L 5.5625 0 L 5.5625 -3.390625 L 4.203125 -1.390625 L 3.3125 -1.390625 L 1.953125 -3.390625 L 1.953125 0 Z M 0.671875 0 "/></g></g></g><g fill="#2e2e2e" fill-opacity="1"><g transform="translate(287.083389, 226.635395)"><g><path d="M 0.671875 0 L 0.671875 -5.625 L 1.953125 -5.625 L 1.953125 0 Z M 0.671875 0 "/></g></g></g><g fill="#2e2e2e" fill-opacity="1"><g transform="translate(291.66722, 226.635395)"><g><path d="M 2.640625 0.109375 C 2.171875 0.109375 1.765625 0.03125 1.421875 -0.125 C 1.078125 -0.28125 0.8125 -0.5 0.625 -0.78125 C 0.445312 -1.070312 0.359375 -1.410156 0.359375 -1.796875 L 1.609375 -1.796875 C 1.609375 -1.523438 1.703125 -1.3125 1.890625 -1.15625 C 2.078125 -1.007812 2.320312 -0.9375 2.625 -0.9375 C 2.894531 -0.9375 3.109375 -0.988281 3.265625 -1.09375 C 3.421875 -1.195312 3.5 -1.34375 3.5 -1.53125 C 3.5 -1.726562 3.40625 -1.890625 3.21875 -2.015625 C 3.03125 -2.140625 2.738281 -2.242188 2.34375 -2.328125 C 1.6875 -2.472656 1.195312 -2.6875 0.875 -2.96875 C 0.5625 -3.25 0.40625 -3.617188 0.40625 -4.078125 C 0.40625 -4.597656 0.59375 -5.003906 0.96875 -5.296875 C 1.34375 -5.597656 1.851562 -5.75 2.5 -5.75 C 2.945312 -5.75 3.332031 -5.671875 3.65625 -5.515625 C 3.988281 -5.359375 4.242188 -5.140625 4.421875 -4.859375 C 4.597656 -4.585938 4.6875 -4.265625 4.6875 -3.890625 L 3.453125 -3.890625 C 3.453125 -4.140625 3.367188 -4.335938 3.203125 -4.484375 C 3.046875 -4.628906 2.816406 -4.703125 2.515625 -4.703125 C 2.242188 -4.703125 2.03125 -4.648438 1.875 -4.546875 C 1.726562 -4.441406 1.65625 -4.296875 1.65625 -4.109375 C 1.65625 -3.929688 1.738281 -3.785156 1.90625 -3.671875 C 2.082031 -3.554688 2.382812 -3.445312 2.8125 -3.34375 C 3.507812 -3.175781 4.015625 -2.953125 4.328125 -2.671875 C 4.640625 -2.390625 4.796875 -2.023438 4.796875 -1.578125 C 4.796875 -1.046875 4.601562 -0.628906 4.21875 -0.328125 C 3.832031 -0.0351562 3.304688 0.109375 2.640625 0.109375 Z M 2.640625 0.109375 "/></g></g></g><g fill="#2e2e2e" fill-opacity="1"><g transform="translate(298.776183, 226.635395)"><g><path d="M 2.03125 0 L 2.03125 -4.4375 L 0.234375 -4.4375 L 0.234375 -5.625 L 5.09375 -5.625 L 5.09375 -4.4375 L 3.3125 -4.4375 L 3.3125 0 Z M 2.03125 0 "/></g></g></g><g fill="#2e2e2e" fill-opacity="1"><g transform="translate(306.06207, 226.635395)"><g><path d="M 0.671875 0 L 0.671875 -5.625 L 3.078125 -5.625 C 3.503906 -5.625 3.875 -5.546875 4.1875 -5.390625 C 4.507812 -5.242188 4.753906 -5.023438 4.921875 -4.734375 C 5.097656 -4.441406 5.1875 -4.09375 5.1875 -3.6875 C 5.1875 -3.28125 5.09375 -2.925781 4.90625 -2.625 C 4.71875 -2.332031 4.457031 -2.109375 4.125 -1.953125 L 5.28125 0 L 3.8125 0 L 2.796875 -1.75 L 1.953125 -1.75 L 1.953125 0 Z M 1.9375 -2.828125 L 2.90625 -2.828125 C 3.226562 -2.828125 3.472656 -2.898438 3.640625 -3.046875 C 3.804688 -3.203125 3.890625 -3.414062 3.890625 -3.6875 C 3.890625 -3.957031 3.804688 -4.164062 3.640625 -4.3125 C 3.472656 -4.457031 3.226562 -4.53125 2.90625 -4.53125 L 1.9375 -4.53125 Z M 1.9375 -2.828125 "/></g></g></g><g fill="#2e2e2e" fill-opacity="1"><g transform="translate(313.677673, 226.635395)"><g><path d="M 2.15625 0 L 2.15625 -1.96875 L 0.078125 -5.625 L 1.53125 -5.625 L 2.234375 -4.328125 L 2.796875 -3.3125 L 3.34375 -4.328125 L 4.046875 -5.625 L 5.5 -5.625 L 3.421875 -1.984375 L 3.421875 0 Z M 2.15625 0 "/></g></g></g><g fill="#2e2e2e" fill-opacity="1"><g transform="translate(113.010659, 234.991643)"><g><path d="M 0.21875 0 L 1.21875 -4.9375 L 4.453125 -4.9375 L 4.265625 -3.984375 L 2.15625 -3.984375 L 1.953125 -2.96875 L 3.875 -2.96875 L 3.6875 -2.03125 L 1.765625 -2.03125 L 1.546875 -0.953125 L 3.734375 -0.953125 L 3.546875 0 Z M 0.21875 0 "/></g></g></g><g fill="#2e2e2e" fill-opacity="1"><g transform="translate(117.285054, 234.991643)"><g><path d="M 2 0.09375 C 1.570312 0.09375 1.21875 0.03125 0.9375 -0.09375 C 0.65625 -0.226562 0.453125 -0.421875 0.328125 -0.671875 C 0.210938 -0.921875 0.191406 -1.21875 0.265625 -1.5625 L 1.34375 -1.5625 C 1.3125 -1.332031 1.351562 -1.148438 1.46875 -1.015625 C 1.59375 -0.890625 1.796875 -0.828125 2.078125 -0.828125 C 2.316406 -0.828125 2.515625 -0.875 2.671875 -0.96875 C 2.828125 -1.0625 2.921875 -1.1875 2.953125 -1.34375 C 2.992188 -1.519531 2.953125 -1.664062 2.828125 -1.78125 C 2.703125 -1.894531 2.472656 -1.988281 2.140625 -2.0625 C 1.597656 -2.175781 1.195312 -2.363281 0.9375 -2.625 C 0.6875 -2.894531 0.609375 -3.253906 0.703125 -3.703125 C 0.773438 -4.109375 0.988281 -4.429688 1.34375 -4.671875 C 1.695312 -4.910156 2.15625 -5.03125 2.71875 -5.03125 C 3.320312 -5.03125 3.773438 -4.882812 4.078125 -4.59375 C 4.378906 -4.300781 4.492188 -3.910156 4.421875 -3.421875 L 3.328125 -3.421875 C 3.367188 -3.628906 3.332031 -3.796875 3.21875 -3.921875 C 3.101562 -4.054688 2.910156 -4.125 2.640625 -4.125 C 2.410156 -4.125 2.21875 -4.078125 2.0625 -3.984375 C 1.914062 -3.890625 1.828125 -3.769531 1.796875 -3.625 C 1.765625 -3.4375 1.8125 -3.285156 1.9375 -3.171875 C 2.0625 -3.066406 2.296875 -2.976562 2.640625 -2.90625 C 3.191406 -2.78125 3.585938 -2.578125 3.828125 -2.296875 C 4.078125 -2.023438 4.160156 -1.679688 4.078125 -1.265625 C 3.992188 -0.847656 3.769531 -0.515625 3.40625 -0.265625 C 3.050781 -0.0234375 2.582031 0.09375 2 0.09375 Z M 2 0.09375 "/></g></g></g><g fill="#2e2e2e" fill-opacity="1"><g transform="translate(121.791826, 234.991643)"><g><path d="M 1.390625 0 L 2.171875 -3.890625 L 0.625 -3.890625 L 0.828125 -4.9375 L 5.078125 -4.9375 L 4.859375 -3.890625 L 3.3125 -3.890625 L 2.53125 0 Z M 1.390625 0 "/></g></g></g><g fill="#2e2e2e" fill-opacity="1"><g transform="translate(126.46056, 234.991643)"><g><path d="M 0.21875 0 L 1.21875 -4.9375 L 3.125 -4.9375 C 3.632812 -4.9375 4.066406 -4.820312 4.421875 -4.59375 C 4.773438 -4.363281 5.023438 -4.054688 5.171875 -3.671875 C 5.316406 -3.285156 5.34375 -2.835938 5.25 -2.328125 C 5.15625 -1.859375 4.96875 -1.445312 4.6875 -1.09375 C 4.40625 -0.75 4.050781 -0.476562 3.625 -0.28125 C 3.195312 -0.09375 2.722656 0 2.203125 0 Z M 1.5625 -1.03125 L 2.328125 -1.03125 C 2.617188 -1.03125 2.890625 -1.085938 3.140625 -1.203125 C 3.390625 -1.328125 3.597656 -1.5 3.765625 -1.71875 C 3.941406 -1.9375 4.054688 -2.191406 4.109375 -2.484375 C 4.203125 -2.921875 4.140625 -3.265625 3.921875 -3.515625 C 3.710938 -3.773438 3.390625 -3.90625 2.953125 -3.90625 L 2.140625 -3.90625 Z M 1.5625 -1.03125 "/></g></g></g><g fill="#2e2e2e" fill-opacity="1"><g transform="translate(113.166531, 241.44661)"><g><path d="M 0 0 L 0.140625 -0.796875 L 2.515625 -2.53125 C 2.734375 -2.695312 2.894531 -2.847656 3 -2.984375 C 3.113281 -3.117188 3.179688 -3.257812 3.203125 -3.40625 C 3.242188 -3.613281 3.210938 -3.773438 3.109375 -3.890625 C 3.003906 -4.015625 2.847656 -4.078125 2.640625 -4.078125 C 2.410156 -4.078125 2.210938 -4.003906 2.046875 -3.859375 C 1.890625 -3.722656 1.78125 -3.53125 1.71875 -3.28125 L 0.6875 -3.28125 C 0.800781 -3.832031 1.035156 -4.257812 1.390625 -4.5625 C 1.742188 -4.875 2.191406 -5.03125 2.734375 -5.03125 C 3.097656 -5.03125 3.40625 -4.957031 3.65625 -4.8125 C 3.914062 -4.675781 4.101562 -4.484375 4.21875 -4.234375 C 4.332031 -3.984375 4.351562 -3.695312 4.28125 -3.375 C 4.21875 -3.082031 4.09375 -2.804688 3.90625 -2.546875 C 3.71875 -2.296875 3.4375 -2.039062 3.0625 -1.78125 L 2.015625 -0.984375 L 3.890625 -0.984375 L 3.703125 0 Z M 0 0 "/></g></g></g><g fill="#2e2e2e" fill-opacity="1"><g transform="translate(117.708511, 241.44661)"><g><path d="M 2.171875 0.09375 C 1.734375 0.09375 1.367188 -0.0078125 1.078125 -0.21875 C 0.785156 -0.4375 0.585938 -0.738281 0.484375 -1.125 C 0.378906 -1.519531 0.378906 -1.992188 0.484375 -2.546875 C 0.640625 -3.328125 0.9375 -3.9375 1.375 -4.375 C 1.820312 -4.8125 2.367188 -5.03125 3.015625 -5.03125 C 3.460938 -5.03125 3.832031 -4.921875 4.125 -4.703125 C 4.414062 -4.492188 4.613281 -4.191406 4.71875 -3.796875 C 4.820312 -3.398438 4.816406 -2.925781 4.703125 -2.375 C 4.546875 -1.601562 4.25 -1 3.8125 -0.5625 C 3.375 -0.125 2.828125 0.09375 2.171875 0.09375 Z M 1.578125 -2.4375 C 1.472656 -1.945312 1.476562 -1.566406 1.59375 -1.296875 C 1.71875 -1.035156 1.941406 -0.90625 2.265625 -0.90625 C 2.597656 -0.90625 2.878906 -1.039062 3.109375 -1.3125 C 3.347656 -1.59375 3.519531 -1.984375 3.625 -2.484375 C 3.71875 -2.984375 3.703125 -3.363281 3.578125 -3.625 C 3.460938 -3.894531 3.25 -4.03125 2.9375 -4.03125 C 2.601562 -4.03125 2.316406 -3.890625 2.078125 -3.609375 C 1.835938 -3.328125 1.671875 -2.9375 1.578125 -2.4375 Z M 1.578125 -2.4375 "/></g></g></g><g fill="#2e2e2e" fill-opacity="1"><g transform="translate(122.651875, 241.44661)"><g><path d="M 0 0 L 0.140625 -0.796875 L 2.515625 -2.53125 C 2.734375 -2.695312 2.894531 -2.847656 3 -2.984375 C 3.113281 -3.117188 3.179688 -3.257812 3.203125 -3.40625 C 3.242188 -3.613281 3.210938 -3.773438 3.109375 -3.890625 C 3.003906 -4.015625 2.847656 -4.078125 2.640625 -4.078125 C 2.410156 -4.078125 2.210938 -4.003906 2.046875 -3.859375 C 1.890625 -3.722656 1.78125 -3.53125 1.71875 -3.28125 L 0.6875 -3.28125 C 0.800781 -3.832031 1.035156 -4.257812 1.390625 -4.5625 C 1.742188 -4.875 2.191406 -5.03125 2.734375 -5.03125 C 3.097656 -5.03125 3.40625 -4.957031 3.65625 -4.8125 C 3.914062 -4.675781 4.101562 -4.484375 4.21875 -4.234375 C 4.332031 -3.984375 4.351562 -3.695312 4.28125 -3.375 C 4.21875 -3.082031 4.09375 -2.804688 3.90625 -2.546875 C 3.71875 -2.296875 3.4375 -2.039062 3.0625 -1.78125 L 2.015625 -0.984375 L 3.890625 -0.984375 L 3.703125 0 Z M 0 0 "/></g></g></g><g fill="#2e2e2e" fill-opacity="1"><g transform="translate(127.193855, 241.44661)"><g><path d="M 0 0 L 0.140625 -0.796875 L 2.515625 -2.53125 C 2.734375 -2.695312 2.894531 -2.847656 3 -2.984375 C 3.113281 -3.117188 3.179688 -3.257812 3.203125 -3.40625 C 3.242188 -3.613281 3.210938 -3.773438 3.109375 -3.890625 C 3.003906 -4.015625 2.847656 -4.078125 2.640625 -4.078125 C 2.410156 -4.078125 2.210938 -4.003906 2.046875 -3.859375 C 1.890625 -3.722656 1.78125 -3.53125 1.71875 -3.28125 L 0.6875 -3.28125 C 0.800781 -3.832031 1.035156 -4.257812 1.390625 -4.5625 C 1.742188 -4.875 2.191406 -5.03125 2.734375 -5.03125 C 3.097656 -5.03125 3.40625 -4.957031 3.65625 -4.8125 C 3.914062 -4.675781 4.101562 -4.484375 4.21875 -4.234375 C 4.332031 -3.984375 4.351562 -3.695312 4.28125 -3.375 C 4.21875 -3.082031 4.09375 -2.804688 3.90625 -2.546875 C 3.71875 -2.296875 3.4375 -2.039062 3.0625 -1.78125 L 2.015625 -0.984375 L 3.890625 -0.984375 L 3.703125 0 Z M 0 0 "/></g></g></g></svg>