<?xml version="1.0" standalone="no"?>
<!DOCTYPE svg PUBLIC "-//W3C//DTD SVG 20010904//EN"
 "http://www.w3.org/TR/2001/REC-SVG-20010904/DTD/svg10.dtd">
<svg version="1.0" xmlns="http://www.w3.org/2000/svg"
 width="500.000000pt" height="500.000000pt" viewBox="0 0 500.000000 500.000000"
 preserveAspectRatio="xMidYMid meet">

<g transform="translate(0.000000,500.000000) scale(0.100000,-0.100000)"
fill="#000000" stroke="none">
<path d="M0 2500 l0 -2500 2500 0 2500 0 0 2500 0 2500 -2500 0 -2500 0 0
-2500z m703 546 c67 -32 120 -89 156 -165 22 -48 26 -69 26 -151 0 -82 -4
-103 -26 -151 -36 -76 -89 -133 -157 -166 -50 -25 -68 -28 -152 -28 -84 0
-102 3 -152 28 -199 98 -246 386 -93 564 61 72 147 104 266 99 59 -2 90 -9
132 -30z m580 5 c69 -33 101 -85 105 -170 5 -91 -22 -142 -98 -185 -47 -26
-66 -31 -147 -34 l-93 -4 0 -139 0 -139 -65 0 -65 0 0 204 0 205 145 3 c133 3
146 5 166 25 14 13 22 34 22 53 0 19 -8 40 -22 53 -20 20 -33 22 -166 25
l-145 3 0 66 0 65 158 -4 c141 -3 162 -5 205 -27z m467 -36 l0 -65 -100 0
-100 0 0 -75 0 -74 138 -3 137 -3 3 -62 3 -63 -141 0 -140 0 0 -80 0 -80 100
0 100 0 0 -65 0 -65 -167 2 -168 3 -3 335 c-1 184 0 341 3 347 3 10 46 13 170
13 l165 0 0 -65z m388 -155 c85 -121 158 -222 163 -225 5 -4 9 84 9 219 l0
226 65 0 65 0 0 -350 0 -350 -67 0 -68 1 -155 224 -155 224 -3 -139 -3 -140
-69 0 -70 0 0 265 0 265 68 0 67 0 153 -220z m807 189 c111 -52 185 -165 193
-293 3 -58 -1 -85 -22 -150 l-27 -79 33 -34 32 -33 -39 -40 c-21 -22 -44 -40
-49 -40 -6 0 -24 13 -41 30 l-30 30 -65 -26 c-122 -50 -274 -20 -356 68 -49
52 -71 89 -88 147 -54 184 35 372 206 433 73 26 184 20 253 -13z m654 -307
c72 -186 131 -343 131 -350 0 -9 -18 -12 -67 -10 l-67 3 -64 180 c-35 99 -66
183 -70 187 -4 4 -36 -77 -72 -180 l-65 -187 -67 -3 c-52 -2 -68 0 -68 11 0
12 38 112 206 545 31 78 59 142 63 142 5 0 67 -152 140 -338z m501 273 l0 -65
-100 0 -100 0 0 -75 0 -74 138 -3 137 -3 3 -62 3 -63 -141 0 -140 0 0 -145 0
-145 -70 0 -70 0 0 350 0 350 170 0 170 0 0 -65z m430 0 l0 -65 -95 0 -95 0 0
-75 0 -74 138 -3 137 -3 3 -62 3 -63 -141 0 -140 0 0 -80 0 -80 95 0 95 0 0
-65 0 -65 -165 0 -165 0 0 350 0 350 165 0 165 0 0 -65z m-2754 -1004 c23 -45
-11 -89 -59 -77 -32 8 -45 46 -28 82 15 34 70 31 87 -5z m169 9 c8 -27 -1 -40
-30 -40 -17 0 -25 -7 -28 -22 -2 -13 -5 1 -6 30 -1 51 -1 52 28 52 21 0 32 -6
36 -20z m133 13 c-20 -3 -28 -10 -28 -24 0 -14 7 -19 28 -20 l27 -2 -27 -4
c-19 -3 -28 -10 -28 -23 0 -13 9 -20 28 -23 25 -4 25 -4 -5 -6 l-33 -1 0 55 0
55 33 -1 c30 -2 30 -2 5 -6z m158 -35 l29 -42 6 45 c6 44 6 44 7 -13 1 -32 0
-58 -2 -58 -2 0 -16 19 -32 42 l-29 42 -6 -40 c-6 -38 -6 -37 -8 14 0 28 1 52
3 52 2 0 16 -19 32 -42z m209 32 c4 -6 -6 -7 -25 -4 -41 9 -40 -15 1 -39 32
-18 34 -33 7 -51 -11 -7 -24 -6 -40 1 -21 10 -21 11 11 9 45 -1 52 21 12 35
-29 10 -41 36 -24 52 10 11 51 8 58 -3z m182 -16 c15 -24 15 -29 2 -53 -18
-32 -54 -39 -80 -15 -37 34 -14 94 36 94 15 0 31 -10 42 -26z m129 -68 c28
-11 43 5 47 50 l4 44 -1 -46 c-2 -87 -70 -89 -72 -3 l-1 44 4 -42 c2 -24 10
-44 19 -47z m230 79 c4 -8 1 -21 -4 -28 -7 -8 -7 -18 -2 -27 6 -8 10 -22 9
-30 0 -8 -7 -3 -15 13 -8 15 -23 27 -34 27 -13 0 -20 -9 -23 -27 -2 -16 -5 -2
-6 30 l-1 57 35 0 c23 0 38 -6 41 -15z m154 8 c-35 -7 -50 -21 -50 -48 0 -29
24 -49 50 -42 11 3 20 1 20 -4 0 -12 -37 -11 -61 1 -13 7 -19 21 -19 43 0 41
16 57 55 56 27 -2 27 -2 5 -6z m152 0 c-40 -5 -41 -33 -2 -44 25 -7 25 -7 -3
-8 -39 -1 -33 -34 8 -42 29 -6 29 -7 -7 -8 l-38 -1 0 55 0 55 38 -2 37 -1 -33
-4z m-882 -445 c0 -10 2 -10 9 0 5 9 32 12 89 11 74 -1 81 -3 84 -23 4 -28 32
-27 36 2 5 32 24 27 20 -5 -2 -23 -9 -29 -32 -31 -18 -2 -32 2 -37 11 -9 15
-69 12 -69 -4 0 -5 -20 -9 -45 -9 -28 0 -45 4 -45 12 0 9 -3 9 -12 0 -7 -7
-25 -12 -40 -12 -24 0 -28 4 -28 30 0 28 3 30 35 30 21 0 35 -5 35 -12z m315
2 c-22 -6 -25 -8 -9 -9 25 -1 50 -26 35 -35 -5 -3 -27 -5 -50 -4 -37 1 -41 4
-41 28 0 25 3 27 48 27 41 1 43 0 17 -7z m-265 -84 c0 -8 -10 -18 -22 -22
l-23 -8 25 -7 c23 -7 23 -7 -7 -8 -23 -1 -33 4 -33 14 0 8 6 15 14 15 8 0 18
5 22 12 5 8 0 9 -14 6 -12 -4 -22 -2 -22 3 0 5 14 9 30 9 19 0 30 -5 30 -14z
m84 -2 c9 -22 -11 -44 -40 -44 -23 0 -41 30 -29 50 10 16 62 12 69 -6z m73 -1
c3 -7 -8 -16 -24 -20 l-28 -7 30 -7 c29 -6 29 -7 -7 -8 -45 -1 -49 12 -10 34
23 14 24 16 5 12 -13 -3 -23 -1 -23 5 0 13 53 5 57 -9z m71 -13 c1 -27 -3 -30
-29 -30 -16 0 -29 5 -29 11 0 6 8 8 19 4 16 -5 19 -1 18 15 -1 14 -6 18 -19
14 -10 -3 -18 -1 -18 5 0 6 13 11 28 11 25 0 29 -4 30 -30z"/>
<path d="M465 2934 c-47 -24 -66 -45 -91 -99 -60 -128 -2 -284 118 -320 142
-42 258 55 258 214 -1 101 -48 182 -123 210 -41 16 -127 13 -162 -5z m138
-166 c24 -28 21 -55 -8 -83 -36 -37 -87 -28 -104 18 -27 71 62 123 112 65z"/>
<path d="M2723 2937 c-22 -12 -18 -17 122 -157 79 -79 148 -141 152 -136 4 4
8 44 8 89 0 93 -19 136 -83 185 -29 22 -47 27 -106 30 -45 1 -79 -2 -93 -11z"/>
<path d="M2607 2798 c-22 -81 13 -194 75 -241 49 -37 121 -52 176 -35 l42 13
-143 143 c-132 131 -145 142 -150 120z"/>
<path d="M1700 2014 c-17 -20 -2 -67 23 -72 24 -5 47 16 47 42 0 42 -45 61
-70 30z"/>
<path d="M1890 2010 c0 -16 5 -21 23 -18 12 2 22 10 22 18 0 8 -10 16 -22 18
-18 3 -23 -2 -23 -18z"/>
<path d="M2550 2010 c-26 -48 28 -92 61 -51 24 29 11 65 -24 69 -18 2 -29 -3
-37 -18z"/>
<path d="M2920 2010 c0 -17 5 -21 28 -18 16 2 27 9 27 18 0 9 -11 16 -27 18
-23 3 -28 -1 -28 -18z"/>
<path d="M2355 1580 c-4 -7 -3 -16 3 -22 14 -14 45 -2 40 15 -6 16 -34 21 -43
7z"/>
<path d="M2460 1580 c16 -5 19 -8 8 -9 -28 -2 -31 -21 -4 -21 19 0 26 5 26 20
0 15 -6 20 -27 19 l-28 -1 25 -8z"/>
<path d="M2510 1580 c0 -5 9 -10 20 -10 11 0 20 5 20 10 0 6 -9 10 -20 10 -11
0 -20 -4 -20 -10z"/>
<path d="M2680 1570 c0 -9 39 -25 46 -18 2 3 -7 10 -21 16 -14 6 -25 7 -25 2z"/>
<path d="M2494 1499 c-10 -17 13 -36 27 -22 12 12 4 33 -11 33 -5 0 -12 -5
-16 -11z"/>
</g>
</svg>
